<svg xmlns="http://www.w3.org/2000/svg" viewBox="0 0 1200 630" width="1200" height="630">
  <defs>
    <linearGradient id="bg" x1="0" y1="0" x2="1" y2="1">
      <stop offset="0%" stop-color="#06060f"/>
      <stop offset="100%" stop-color="#0d0d1a"/>
    </linearGradient>
    <radialGradient id="glow1" cx="0.25" cy="0.4" r="0.6">
      <stop offset="0%" stop-color="#00f5ff" stop-opacity="0.18"/>
      <stop offset="100%" stop-color="#00f5ff" stop-opacity="0"/>
    </radialGradient>
    <radialGradient id="glow2" cx="0.85" cy="0.85" r="0.5">
      <stop offset="0%" stop-color="#ff00a0" stop-opacity="0.14"/>
      <stop offset="100%" stop-color="#ff00a0" stop-opacity="0"/>
    </radialGradient>
    <pattern id="grid" width="60" height="60" patternUnits="userSpaceOnUse">
      <path d="M 60 0 L 0 0 0 60" fill="none" stroke="#00f5ff" stroke-opacity="0.05" stroke-width="1"/>
    </pattern>
  </defs>

  <rect width="1200" height="630" fill="url(#bg)"/>
  <rect width="1200" height="630" fill="url(#grid)"/>
  <rect width="1200" height="630" fill="url(#glow1)"/>
  <rect width="1200" height="630" fill="url(#glow2)"/>

  <!-- Top accent line -->
  <rect x="0" y="0" width="1200" height="3" fill="#00f5ff" opacity="0.6"/>

  <!-- Logo hexagon -->
  <g transform="translate(80, 80)">
    <path d="M40 5 L70 22 L70 58 L40 75 L10 58 L10 22 Z" fill="none" stroke="#00f5ff" stroke-width="3.5" stroke-linejoin="round"/>
    <text x="100" y="48" font-family="JetBrains Mono, monospace" font-size="32" font-weight="700" fill="#e2e8f0" letter-spacing="3">
      BEREN<tspan fill="#00f5ff">/</tspan>SOFTWARE
    </text>
  </g>

  <!-- Tagline -->
  <text x="80" y="280" font-family="Inter, sans-serif" font-size="76" font-weight="900" fill="#e2e8f0" letter-spacing="-2">Integriamo sistemi.</text>
  <text x="80" y="370" font-family="Inter, sans-serif" font-size="76" font-weight="900" fill="#00f5ff" letter-spacing="-2">Acceleriamo il business.</text>

  <!-- Subtitle -->
  <text x="80" y="430" font-family="Inter, sans-serif" font-size="26" font-weight="500" fill="#cbd5e1">System Integration · VDI · AI · Cybersecurity</text>

  <!-- Compliance badges -->
  <g transform="translate(80, 480)" font-family="JetBrains Mono, monospace" font-size="18" font-weight="600">
    <rect x="0" y="0" width="120" height="40" fill="none" stroke="#00f5ff" stroke-opacity="0.4" rx="4"/>
    <text x="60" y="26" fill="#00f5ff" text-anchor="middle">GDPR</text>

    <rect x="135" y="0" width="120" height="40" fill="none" stroke="#00f5ff" stroke-opacity="0.4" rx="4"/>
    <text x="195" y="26" fill="#00f5ff" text-anchor="middle">NIS2</text>

    <rect x="270" y="0" width="120" height="40" fill="none" stroke="#00f5ff" stroke-opacity="0.4" rx="4"/>
    <text x="330" y="26" fill="#00f5ff" text-anchor="middle">DORA</text>

    <rect x="405" y="0" width="200" height="40" fill="none" stroke="#00f5ff" stroke-opacity="0.4" rx="4"/>
    <text x="505" y="26" fill="#00f5ff" text-anchor="middle">ISO 27001</text>
  </g>

  <!-- Bottom-right meta -->
  <g transform="translate(1120, 580)" text-anchor="end" font-family="JetBrains Mono, monospace" font-size="18" fill="#94a3b8">
    <text>// MADE IN EU</text>
  </g>

  <!-- Decorative corner brackets -->
  <g stroke="#00f5ff" stroke-width="2" fill="none" opacity="0.5">
    <path d="M 1140 50 L 1180 50 L 1180 90"/>
    <path d="M 1140 580 L 1180 580 L 1180 540"/>
  </g>
</svg>
